# xmcd
#
# Track frame offsets: 
#        150
#        14367
#        33968
#        45946
#        80445
#        91972
#        108263
#        133717
#        148020
#        170484
#        188732
#        207625
#        229160
#        245461
#        257743
#        271417
#        291836
#        305187
#        317171
#        332995
#
# Disc length: 4718 seconds
#
# Revision: 0
# Processed by: cddbd v1.5.2PL0 Copyright (c) Steve Scherf et al.
# Submitted via: ExactAudioCopy v1.1
#
DISCID=25126c14
DTITLE=Various Artist - 1969 - Woodstock Generation - CD 3
DYEAR=2019
DGENRE=Oldies
TTITLE0=Fleetwood Mac - Albatross
TTITLE1=Serge Gainsbourg and Jane Birkin - Je T'Aime Moi Non Plus
TTITLE2=Santana - Jingo
TTITLE3=Chicago - I'm A Man
TTITLE4=The Beach Boys - I Can Hear Music
TTITLE5=Frank Zappa - Peaches En Regalia
TTITLE6=The Velvet Underground - Pale Blue Eyes
TTITLE7=The Stooges - I Wanna Be Your Dog
TTITLE8=Steve Miller Band - Space Cowboy
TTITLE9=Blood Sweat and Tears - And When I Die
TTITLE10=Captain Beefheart And His Magic Band - Safe As Milk (Take 5)
TTITLE11=The 5th Dimension - Aquarius - Let The Sunshine In
TTITLE12=The Flying Burrito Brothers - Hot Burrito #1
TTITLE13=Johnny Winter - Good Morning Little School Girl
TTITLE14=Richie Havens - Indian Rope Man
TTITLE15=Isaac Hayes - Walk On By
TTITLE16=B.J. Thomas - Raindrops Keep Fallin' On My Head
TTITLE17=Glen Campbell - Galveston
TTITLE18=The Band - The Night They Drove Old Dixie Down
TTITLE19=Peter Sarstedt - Where Do You Go To My Lovely
EXTD=
EXTT0=
EXTT1=
EXTT2=
EXTT3=
EXTT4=
EXTT5=
EXTT6=
EXTT7=
EXTT8=
EXTT9=
EXTT10=
EXTT11=
EXTT12=
EXTT13=
EXTT14=
EXTT15=
EXTT16=
EXTT17=
EXTT18=
EXTT19=
PLAYORDER=
